<?xml version="1.0" standalone="no"?>
<!DOCTYPE svg PUBLIC "-//W3C//DTD SVG 20010904//EN"
 "http://www.w3.org/TR/2001/REC-SVG-20010904/DTD/svg10.dtd">
<svg version="1.0" xmlns="http://www.w3.org/2000/svg"
 width="512.000000pt" height="512.000000pt" viewBox="0 0 512.000000 512.000000"
 preserveAspectRatio="xMidYMid meet">
<metadata>
Created by potrace 1.11, written by Peter Selinger 2001-2013
</metadata>
<g transform="translate(0.000000,512.000000) scale(0.100000,-0.100000)"
fill="#000000" stroke="none">
<path d="M1000 2975 l0 -145 150 0 150 0 0 -425 0 -425 175 0 175 0 0 425 0
425 150 0 150 0 0 145 0 145 -475 0 -475 0 0 -145z"/>
<path d="M2050 2550 l0 -570 313 0 c347 0 414 7 504 51 107 51 153 132 153
264 0 56 -5 82 -26 123 -29 59 -90 116 -142 133 l-36 12 46 23 c124 63 173
230 107 369 -37 79 -127 135 -249 154 -36 6 -201 11 -367 11 l-303 0 0 -570z
m565 260 c11 -12 19 -36 19 -55 0 -62 -23 -75 -136 -75 l-98 0 0 75 0 75 98 0
c87 0 101 -2 117 -20z m26 -409 c28 -35 25 -85 -7 -110 -23 -18 -41 -21 -130
-21 l-104 0 0 81 0 81 111 -4 c102 -3 112 -5 130 -27z"/>
<path d="M3145 3108 c-3 -7 -4 -263 -3 -568 l3 -555 177 -3 178 -2 2 199 3
199 105 -199 104 -199 193 0 c106 0 193 2 193 5 0 3 -54 101 -120 217 -66 116
-119 212 -118 213 2 2 26 14 55 29 66 33 115 82 150 149 25 47 28 62 28 152 0
93 -2 105 -33 167 -53 108 -157 177 -297 198 -107 15 -614 13 -620 -2z m571
-321 c33 -39 33 -99 -1 -132 -22 -23 -32 -25 -120 -25 l-95 0 0 96 0 96 96 -4
c91 -3 97 -5 120 -31z"/>
</g>
</svg>
